<svg xmlns="http://www.w3.org/2000/svg" xmlns:xlink="http://www.w3.org/1999/xlink" x="0px" y="0px" viewBox="0 0 400 400" xml:space="preserve">
  <style type="text/css">
    .st0{fill:#231F20;}
  </style>
  <path class="st0" d="M367,220.7c0-28.8-7.4-56-20.3-79.7l4-3.3c0.1-0.1,0.1-0.1,0.1-0.2c0,0,0,0,0-0.1c0-0.1,0-0.2,0-0.3
    c0,0,0,0,0,0c0,0,0,0,0,0c0,0,0-0.1-0.1-0.1l-45-57.4l12.5-11.9c5-4.7,5.2-12.7,0.4-17.6l-32.4-34c-4.7-5-12.7-5.2-17.6-0.4
    l-15.7,15c-13.4-4.3-30.6-6.2-53-6.2c-22.4,0-39.5,1.9-53,6.2l-15.7-15c-2.4-2.3-5.6-3.5-8.9-3.4c-3.3,0.1-6.4,1.4-8.7,3.8
    l-32.4,34c-4.7,5-4.6,12.9,0.4,17.6l12.5,11.9l-45,57.4c0,0,0,0.1-0.1,0.1c0,0,0,0,0,0c0,0,0,0,0,0c0,0.1,0,0.2,0,0.3
    c0,0,0,0,0,0.1c0,0.1,0.1,0.2,0.1,0.2l4,3.3C40.3,164.7,33,191.9,33,220.7c0,12.9,1.5,25.4,4.2,37.4c0,0,0,0.1,0,0.1l0,0l0,0
    c0,0,0,0,0,0c0,0.1,0.1,0.2,0.1,0.3l0,0c0,0,0,0,0,0.1c0,0.2,0.1,0.3,0.1,0.5l0.2,0.7c0.2,0.7,0.3,1.4,0.5,2.1c0,0,0,0.1,0,0.1
    c0,0,0,0.1,0,0.1l0.1,0.4c0.1,0.2,0.1,0.4,0.2,0.6c0,0.1,0.1,0.3,0.1,0.4c0.2,0.7,0.4,1.4,0.6,2.1c0,0,0,0.1,0,0.1
    c0,0.1,0.1,0.2,0.1,0.3l0.1,0.4c0.1,0.2,0.1,0.4,0.2,0.6c0,0,0,0.1,0,0.1c0.2,0.7,0.4,1.4,0.6,2c0,0,0,0,0,0.1
    c0.1,0.2,0.1,0.4,0.2,0.6l0.2,0.6c0,0.1,0.1,0.3,0.1,0.4c0,0,0,0,0,0.1c0.1,0.2,0.2,0.5,0.2,0.7l0.1,0.2l0.1,0.2
    c0.1,0.3,0.2,0.6,0.3,0.9l0,0.1c0,0,0,0,0,0.1c0.1,0.2,0.1,0.4,0.2,0.6l0.2,0.7c0,0,0,0,0,0.1c0,0,0,0.1,0,0.1
    c0.2,0.7,0.5,1.4,0.7,2.1l0,0c0.1,0.3,0.2,0.5,0.3,0.8l0.1,0.3c0,0.1,0.1,0.2,0.1,0.4c0.4,1.1,0.9,2.3,1.3,3.4l0.2,0.6l0,0.1
    c0.1,0.1,0.1,0.3,0.2,0.4l0,0.1c0.3,0.7,0.6,1.4,0.9,2.1l0,0c0,0,0,0,0,0c0,0.1,0.1,0.2,0.1,0.3c0.1,0.2,0.2,0.4,0.3,0.6
    c0,0.1,0.1,0.2,0.1,0.3c0.1,0.2,0.2,0.4,0.3,0.6c0.3,0.6,0.5,1.3,0.8,1.9c0.1,0.1,0.1,0.3,0.2,0.4c0.1,0.3,0.2,0.6,0.4,0.8
    c0.2,0.4,0.4,0.9,0.6,1.3c0.1,0.3,0.3,0.6,0.4,0.9c0,0,0,0,0,0c0,0.1,0.1,0.1,0.1,0.2c0.2,0.4,0.4,0.8,0.6,1.2c0,0,0,0,0,0.1
    c0,0,0,0,0,0c0.3,0.7,0.6,1.3,1,1.9l0.1,0.1c0.2,0.5,0.5,0.9,0.7,1.4c0.2,0.5,0.5,0.9,0.7,1.4c0.1,0.2,0.2,0.4,0.3,0.5
    c0,0,0,0.1,0.1,0.1l0.2,0.4c0.2,0.3,0.3,0.6,0.5,0.9c0.5,0.9,1,1.9,1.6,2.8c0.1,0.1,0.2,0.3,0.2,0.4c0.1,0.1,0.1,0.2,0.2,0.3
    c0.1,0.1,0.1,0.2,0.2,0.3l0.1,0.1c0.5,0.8,1,1.7,1.5,2.5l0.8,1.3c0,0.1,0.1,0.1,0.1,0.2c0.2,0.3,0.4,0.6,0.5,0.8
    c0.2,0.3,0.4,0.6,0.6,0.9c0.3,0.4,0.6,0.9,0.8,1.3c0.4,0.6,0.8,1.3,1.2,1.9c0,0,0,0,0,0c0.2,0.2,0.3,0.5,0.5,0.7
    c0.1,0.2,0.3,0.4,0.4,0.6c0.4,0.6,0.8,1.2,1.2,1.8l0.3,0.4c0.2,0.3,0.4,0.6,0.6,0.9c0,0.1,0.1,0.1,0.1,0.2c0.2,0.3,0.5,0.7,0.7,1
    c0.2,0.2,0.3,0.4,0.5,0.7l0.9,1.2c0.3,0.5,0.7,0.9,1,1.4c0.3,0.4,0.6,0.8,0.9,1.2c0,0,0,0,0,0l0.3,0.4c0.8,1,1.5,1.9,2.3,2.9
    c0.1,0.1,0.2,0.2,0.3,0.3c0.4,0.4,0.7,0.9,1.1,1.3c0.4,0.4,0.7,0.8,1.1,1.3c0.2,0.3,0.5,0.6,0.8,0.9l0.2,0.3
    c0.1,0.1,0.2,0.2,0.3,0.4c0.4,0.4,0.8,0.9,1.2,1.3c0,0,0,0,0,0c0.3,0.4,0.7,0.8,1.1,1.2c0.5,0.5,1,1.1,1.5,1.6c0,0,0.1,0.1,0.1,0.1
    c0.4,0.5,0.9,0.9,1.3,1.4c0.4,0.4,0.8,0.9,1.3,1.3l0.3,0.3c0.2,0.2,0.4,0.4,0.6,0.7c0.2,0.2,0.3,0.3,0.5,0.5
    c0.4,0.4,0.9,0.9,1.3,1.3c0.1,0.1,0.2,0.2,0.4,0.4l0.5,0.5c0.6,0.6,1.3,1.2,1.9,1.8c0.4,0.3,0.7,0.7,1.1,1l0.6,0.6
    c0.6,0.6,1.3,1.2,1.9,1.7l0.9,0.8c0.4,0.3,0.8,0.7,1.2,1c0.3,0.2,0.6,0.5,0.9,0.7l1.1,0.9c0.4,0.3,0.8,0.7,1.2,1
    c0.3,0.3,0.7,0.5,1,0.8c0.3,0.2,0.5,0.4,0.8,0.6c0.6,0.5,1.3,1,1.9,1.5l1.1,0.8c0.1,0.1,0.1,0.1,0.2,0.2c0.2,0.2,0.4,0.3,0.6,0.4
    c0.5,0.4,1.1,0.8,1.6,1.2l0.6,0.4c0.5,0.4,1.1,0.7,1.6,1.1c0.3,0.2,0.5,0.4,0.8,0.5c0.2,0.2,0.5,0.3,0.7,0.5l0.7,0.5
    c0.8,0.5,1.6,1.1,2.4,1.6l0.4,0.3c0.1,0,0.1,0.1,0.2,0.1c0.1,0.1,0.2,0.1,0.3,0.2l0.2,0.1c0.7,0.4,1.4,0.9,2.1,1.3l1.2,0.7
    c0.3,0.2,0.5,0.3,0.8,0.5c0.3,0.2,0.6,0.4,0.9,0.6c0.1,0.1,0.3,0.1,0.4,0.2c0.4,0.2,0.8,0.5,1.2,0.7c0.7,0.4,1.4,0.8,2.2,1.2
    l0.3,0.1c0.2,0.1,0.3,0.2,0.5,0.3c0.1,0.1,0.2,0.1,0.3,0.2c0,0,0.1,0,0.1,0.1c0.9,0.5,1.7,0.9,2.6,1.4l0.8,0.4
    c0.4,0.2,0.8,0.4,1.2,0.6c0.3,0.2,0.6,0.3,0.9,0.5c0.4,0.2,0.9,0.4,1.3,0.6l0.6,0.3c0.9,0.4,1.9,0.9,2.8,1.3c0,0,0.1,0,0.1,0.1
    c0,0,0.1,0,0.1,0c0.2,0.1,0.4,0.2,0.6,0.3l0.4,0.2c0.8,0.3,1.6,0.7,2.4,1c0.4,0.2,0.9,0.4,1.3,0.5c0.2,0.1,0.3,0.1,0.5,0.2
    c0.2,0.1,0.5,0.2,0.7,0.3c0.4,0.2,0.7,0.3,1.1,0.5c0.4,0.2,0.9,0.4,1.3,0.5c0.8,0.3,1.6,0.6,2.4,0.9l0.2,0.1c0.1,0,0.1,0,0.2,0.1
    l0.9,0.3c0.9,0.3,1.9,0.7,2.8,1l0.8,0.3c0.3,0.1,0.6,0.2,0.9,0.3c0.1,0,0.2,0.1,0.4,0.1c0.8,0.3,1.6,0.5,2.5,0.8l0.4,0.1
    c0.8,0.2,1.6,0.5,2.4,0.7c0.1,0,0.1,0,0.2,0.1c0.2,0.1,0.5,0.1,0.7,0.2c0.3,0.1,0.6,0.2,0.8,0.2l0.3,0.1c0.9,0.2,1.7,0.5,2.6,0.7
    c0.4,0.1,0.9,0.2,1.3,0.3c0.8,0.2,1.6,0.4,2.5,0.6l1.4,0.3c0.5,0.1,1,0.2,1.5,0.3c0.1,0,0.3,0.1,0.4,0.1c0.2,0,0.5,0.1,0.7,0.1
    l0.2,0c0.3,0.1,0.7,0.1,1,0.2c1,0.2,2,0.4,3,0.6l0.8,0.2c1.3,0.2,2.6,0.5,4,0.7l0.1,0c0.4,0.1,0.9,0.1,1.3,0.2
    c0.3,0,0.5,0.1,0.8,0.1c0.6,0.1,1.2,0.2,1.8,0.2l0.2,0c0.1,0,0.3,0,0.4,0l0.5,0.1c0.7,0.1,1.4,0.2,2.1,0.2c0.2,0,0.4,0.1,0.7,0.1
    c0,0,0,0,0.1,0c0,0,0,0,0,0c0.4,0,0.8,0.1,1.1,0.1l0.2,0c0.4,0,0.8,0.1,1.2,0.1c1,0.1,1.9,0.2,2.9,0.2c0.3,0,0.6,0,0.9,0.1
    c1.5,0.1,3.1,0.2,4.6,0.2c0.4,0,0.8,0,1.2,0c1.8,0.1,3.6,0.1,5.4,0.1h0h0c0,0,0,0,0,0c1.8,0,3.6,0,5.4-0.1c0.4,0,0.8,0,1.2,0
    c1.5-0.1,3.1-0.1,4.6-0.2c0.3,0,0.6,0,0.9-0.1c1-0.1,2-0.2,3-0.3c0.3,0,0.7-0.1,1-0.1l0.2,0c0.4,0,0.8-0.1,1.2-0.1c0,0,0,0,0,0
    c0,0,0,0,0,0c0.2,0,0.4-0.1,0.7-0.1c0.7-0.1,1.4-0.2,2.1-0.2l0.4,0c0.2,0,0.4-0.1,0.6-0.1l0.2,0c0.6-0.1,1.1-0.2,1.7-0.2
    c0.2,0,0.5-0.1,0.7-0.1c0.4-0.1,0.7-0.1,1.1-0.1l0.4-0.1c1.3-0.2,2.6-0.4,3.9-0.7l0.9-0.2c1-0.2,2-0.4,3-0.6
    c0.3-0.1,0.6-0.1,0.9-0.2l0.4-0.1c0.2,0,0.5-0.1,0.7-0.1c0,0,0.1,0,0.1,0c0.6-0.1,1.1-0.2,1.7-0.4l1.4-0.3c0.8-0.2,1.6-0.4,2.4-0.6
    c0.5-0.1,1-0.2,1.4-0.4c0.8-0.2,1.6-0.4,2.4-0.7l0.3-0.1c0.3-0.1,0.6-0.2,1-0.3c0.9-0.3,1.8-0.5,2.7-0.8l1-0.3
    c0.8-0.3,1.6-0.5,2.5-0.8c0,0,0.1,0,0.1,0c0.4-0.1,0.7-0.2,1.1-0.3l0.8-0.3c0.9-0.3,1.9-0.7,2.8-1l0.8-0.3c0.1,0,0.1,0,0.2-0.1
    l0.4-0.2c0.7-0.3,1.5-0.6,2.2-0.8c0.5-0.2,1-0.4,1.5-0.6c0.3-0.1,0.6-0.2,0.9-0.4c0.2-0.1,0.5-0.2,0.7-0.3c0.2-0.1,0.3-0.1,0.5-0.2
    c0.5-0.2,1-0.4,1.5-0.6c0.7-0.3,1.4-0.6,2.1-0.9l0.2-0.1c0.2-0.1,0.4-0.2,0.6-0.3c0.1-0.1,0.3-0.1,0.4-0.2c0.1,0,0.1-0.1,0.2-0.1
    c0.7-0.3,1.5-0.7,2.2-1l0.3-0.2c0.3-0.1,0.6-0.3,0.9-0.4c0.3-0.2,0.7-0.3,1-0.5c0.3-0.2,0.7-0.3,1-0.5c0.3-0.2,0.7-0.3,1-0.5
    l1.1-0.6c0.8-0.4,1.7-0.9,2.5-1.3c0.2-0.1,0.3-0.2,0.5-0.3c0.2-0.1,0.4-0.2,0.7-0.4l0.3-0.2c0.6-0.3,1.3-0.7,1.9-1.1
    c0.5-0.3,0.9-0.5,1.4-0.8l0.1-0.1c0.3-0.2,0.7-0.4,1-0.6c0.2-0.1,0.5-0.3,0.7-0.4c0.5-0.3,1-0.6,1.6-0.9c0.6-0.3,1.1-0.7,1.7-1.1
    c0,0,0.1,0,0.1-0.1c0.1-0.1,0.3-0.2,0.4-0.3c0.1-0.1,0.3-0.2,0.4-0.3c0.2-0.1,0.4-0.2,0.6-0.4c0.5-0.3,0.9-0.6,1.4-0.9l0.5-0.3
    c0.4-0.3,0.8-0.5,1.2-0.8c0.1-0.1,0.3-0.2,0.4-0.3c0.3-0.2,0.5-0.4,0.8-0.6c0.1-0.1,0.2-0.2,0.4-0.3c1-0.7,2-1.4,2.9-2.1l0.4-0.3
    c0.1,0,0.1-0.1,0.2-0.1c0.2-0.1,0.4-0.3,0.6-0.4c0.1-0.1,0.2-0.1,0.3-0.2c0.4-0.3,0.8-0.6,1.2-0.9l0.7-0.5c0.4-0.3,0.7-0.5,1.1-0.8
    c0.2-0.2,0.4-0.3,0.6-0.5c0.3-0.3,0.6-0.5,1-0.8c0,0,0,0,0,0c0.4-0.3,0.9-0.7,1.3-1c0.5-0.4,1.1-0.9,1.6-1.3
    c0.2-0.1,0.3-0.3,0.4-0.4c0.4-0.4,0.9-0.7,1.3-1.1c0.4-0.3,0.7-0.6,1.1-1c0.4-0.3,0.8-0.7,1.2-1l0.2-0.2c0.2-0.2,0.3-0.3,0.5-0.5
    c0.3-0.3,0.7-0.6,1-0.9l0.8-0.8c0.3-0.3,0.6-0.5,0.8-0.8c1.5-1.4,3-2.9,4.5-4.4c0.2-0.2,0.5-0.5,0.7-0.7l0.3-0.3
    c0.5-0.5,1-1.1,1.5-1.6c0.2-0.2,0.4-0.4,0.6-0.6l0.8-0.9c0.2-0.3,0.5-0.5,0.7-0.8c0.5-0.6,1.1-1.2,1.6-1.7l0.1-0.2
    c0.5-0.6,1.1-1.2,1.6-1.9l0.6-0.7c0.5-0.6,1-1.1,1.4-1.7c0.1-0.1,0.2-0.3,0.4-0.4l0.5-0.7c0.3-0.4,0.6-0.7,0.9-1.1
    c0.7-0.9,1.5-1.9,2.2-2.8c0.5-0.7,1-1.3,1.5-2c0.5-0.7,1-1.4,1.6-2.1c0.5-0.7,1-1.4,1.5-2.1l0.4-0.6c0.1-0.1,0.2-0.3,0.3-0.5
    c0.3-0.4,0.6-0.9,0.9-1.3c0.1-0.2,0.2-0.3,0.3-0.5l0.5-0.7c0.5-0.8,1-1.5,1.5-2.3l0.1-0.1c0.2-0.4,0.5-0.8,0.7-1.2
    c0.4-0.6,0.8-1.2,1.1-1.8l0.3-0.5c0.2-0.3,0.4-0.7,0.6-1c0.3-0.5,0.5-0.9,0.8-1.4c0.7-1.3,1.5-2.6,2.2-3.9c0.2-0.4,0.4-0.8,0.6-1.2
    c0.7-1.4,1.4-2.8,2.1-4.2l0.1-0.2c0,0,0,0,0,0c0,0,0,0,0,0c0.3-0.6,0.5-1.1,0.8-1.7c0.3-0.6,0.6-1.3,0.9-1.9
    c0.3-0.6,0.6-1.3,0.9-1.9c0.2-0.6,0.5-1.1,0.7-1.7c0.3-0.7,0.6-1.4,0.9-2c0-0.1,0-0.1,0.1-0.2l0,0c0,0,0,0,0,0
    c0-0.1,0.1-0.2,0.1-0.3l0-0.1c0,0,0,0,0,0c0.1-0.3,0.3-0.7,0.4-1c0.3-0.9,0.7-1.7,1-2.6l0.4-1c0.1-0.3,0.2-0.6,0.3-0.9
    c0.5-1.2,0.9-2.5,1.3-3.7c0.2-0.5,0.3-0.9,0.5-1.4c0.4-1.3,0.9-2.6,1.3-4c0.1-0.3,0.2-0.6,0.3-0.9c0.1-0.2,0.2-0.5,0.2-0.7l0.1-0.4
    c0.3-1,0.6-2,0.8-3l0.2-0.6c0.3-1,0.5-2,0.8-3l0.1-0.5c0.2-0.7,0.4-1.5,0.5-2.3l0-0.1c0-0.1,0-0.1,0-0.2l0.1-0.6c0,0,0-0.1,0-0.1
    c0,0,0,0,0,0C365.6,245.6,367,233.3,367,220.7z M122.7,13.3c3,0,5.8,1.1,7.9,3.2L145.9,31c-4.5,1.5-8.5,3.3-12.2,5.3l-10.6-10.1
    c-0.2-0.2-0.5-0.2-0.7,0l-30.5,32c-0.1,0.1-0.1,0.2-0.1,0.4c0,0.1,0.1,0.3,0.2,0.4l10.6,10.1l-7.6,9.7L82.4,67
    c-4.6-4.4-4.8-11.6-0.4-16.2l32.4-34c2.1-2.2,5-3.5,8-3.5C122.5,13.3,122.6,13.3,122.7,13.3z M95.8,61.4l26.9-28.2l6.3,6
    c-4.2,2.9-7.9,6.2-11.1,10L103,68.3L95.8,61.4z M123.1,32.1c-0.1-0.1-0.2-0.1-0.4-0.1c-0.1,0-0.3,0.1-0.3,0.2L95.1,60.7l-2.2-2.1
    l29.9-31.3l10,9.6c-1,0.6-1.9,1.2-2.8,1.8L123.1,32.1z M118.8,49.9c14.8-17.3,38.4-24.4,81.2-24.4c42.9,0,66.4,7.1,81.2,24.4
    l68.1,87h-91.7l-11.3-21.6c0-0.1,0-0.2,0-0.3c0-0.2-0.2-0.3-0.3-0.3c0,0,0,0,0,0l-16.6-31.7c-6.1-11.1-15.8-10.9-28-10.7l-1.4,0
    l-1.4,0c-12.2-0.2-21.9-0.3-28,10.8l-28.3,53.9H50.7L118.8,49.9z M285.6,16.8l32.4,34c4.4,4.6,4.2,11.8-0.4,16.2l-12.4,11.8
    l-7.6-9.7l7.6-7.3c0,0,0,0,0,0l2.9-2.8c0.2-0.2,0.2-0.5,0-0.7l-30.5-32c-0.2-0.2-0.5-0.2-0.7,0l-10.6,10.1
    c-3.7-2.1-7.7-3.8-12.2-5.3l15.3-14.6C274,12.1,281.2,12.2,285.6,16.8z M277.6,32.1c-0.1-0.1-0.2-0.2-0.4-0.2c-0.1,0-0.3,0-0.4,0.1
    l-6.9,6.5c-0.9-0.6-1.9-1.2-2.8-1.8l10-9.6l29.8,31.3l-2.2,2.1L277.6,32.1z M277.2,33.2l26.9,28.2l-7.2,6.9L282,49.2
    c-3.3-3.8-6.9-7.1-11.1-10L277.2,33.2z M362.1,256.5c-18.4-12-53.3-34.9-86-56.1l69.9-58.8c12.8,23.5,20.1,50.5,20.1,79.1
    C366,233,364.6,245,362.1,256.5z M359.2,267.8c-1.6,5.4-3.5,10.8-5.6,16l-0.2,0.4c-0.4,0.9-0.8,1.8-1.2,2.8l-0.3,0.6
    c-0.4,0.9-0.8,1.8-1.2,2.7l-0.3,0.5c-0.4,0.9-0.9,1.8-1.3,2.7l-0.1,0.2c-1.9,3.9-4.1,7.9-6.3,11.7l-0.3,0.5c-0.5,0.8-1,1.6-1.5,2.4
    l-0.4,0.7c-0.5,0.8-1,1.5-1.5,2.3l-0.5,0.7c-0.5,0.8-1,1.5-1.5,2.3l-0.4,0.6c-2.4,3.4-4.9,6.8-7.5,10.1l-0.5,0.7
    c-0.5,0.7-1.1,1.3-1.6,2l-0.7,0.9c-0.5,0.6-1.1,1.2-1.7,1.9l-0.7,0.8c-0.5,0.6-1.1,1.2-1.6,1.8l-0.8,0.8c-0.6,0.6-1.1,1.2-1.7,1.8
    l-0.6,0.6c-2,2-4,4-6.1,5.9l-1,0.9c-0.5,0.4-0.9,0.9-1.4,1.3l-0.2,0.2c-0.4,0.3-0.8,0.7-1.2,1c-0.5,0.5-1.1,0.9-1.6,1.4
    c-0.4,0.4-0.8,0.7-1.2,1c-0.5,0.4-1.1,0.9-1.6,1.3c-0.4,0.3-0.8,0.7-1.3,1c-0.5,0.4-1.1,0.8-1.6,1.3c-0.3,0.3-0.7,0.5-1,0.8
    l-0.7,0.5c-0.4,0.3-0.8,0.6-1.2,0.9c-0.3,0.2-0.7,0.5-1,0.7l-0.4,0.3c-1,0.7-1.9,1.4-3,2.1c-0.5,0.4-1,0.7-1.6,1.1
    c-0.4,0.3-0.8,0.5-1.2,0.8l-0.5,0.3c-0.5,0.3-0.9,0.6-1.4,0.9c-0.5,0.3-1,0.6-1.5,1c-0.5,0.3-1.1,0.7-1.6,1c-0.5,0.3-1,0.6-1.5,0.9
    c-0.5,0.3-1,0.6-1.4,0.9l-0.4,0.2c-0.5,0.3-0.9,0.5-1.4,0.8c-0.6,0.4-1.2,0.7-1.9,1l-0.3,0.2c-0.4,0.2-0.7,0.4-1.1,0.6
    c-0.8,0.4-1.7,0.9-2.5,1.3l-1.1,0.6c-1,0.5-2,1-3,1.5c-0.3,0.1-0.6,0.3-0.9,0.4l-0.3,0.2c-0.7,0.3-1.5,0.7-2.2,1
    c-0.4,0.2-0.8,0.4-1.2,0.5l-0.2,0.1c-0.7,0.3-1.4,0.6-2.1,0.9c-0.5,0.2-1,0.4-1.5,0.6c-0.7,0.3-1.4,0.6-2.1,0.8
    c-0.5,0.2-1,0.4-1.5,0.6c-0.7,0.3-1.5,0.6-2.2,0.8l-1.4,0.5c-0.9,0.3-1.9,0.7-2.8,1l-0.8,0.3c-1.2,0.4-2.4,0.8-3.6,1.2l-1,0.3
    c-0.9,0.3-1.8,0.5-2.7,0.8c-0.3,0.1-0.6,0.2-1,0.3l-0.3,0.1c-0.8,0.2-1.6,0.4-2.4,0.7c-0.5,0.1-1,0.2-1.4,0.4
    c-0.8,0.2-1.6,0.4-2.4,0.6l-1.4,0.3c-0.8,0.2-1.7,0.4-2.5,0.5l-0.4,0.1c-0.3,0.1-0.6,0.1-0.9,0.2c-1,0.2-2,0.4-2.9,0.6l-0.9,0.2
    c-1.3,0.2-2.6,0.4-3.9,0.6l-0.4,0.1c-1.2,0.2-2.3,0.3-3.5,0.5l-1.2,0.1c-0.9,0.1-1.8,0.2-2.8,0.3c-0.4,0-0.8,0.1-1.2,0.1l-0.2,0
    c-0.9,0.1-1.8,0.2-2.6,0.2c-0.5,0-0.9,0.1-1.4,0.1c-0.9,0.1-1.8,0.1-2.7,0.2l-1.4,0.1c-1,0-2,0.1-2.9,0.1l-1,0c-1.2,0-2.4,0-3.6,0
    v-3.5c3.8-0.2,6.9-3.4,6.9-7.3c0-3.9-3-7-6.9-7.3v-6.6l87.9-87.5c0.1-0.1,0.2-0.3,0.1-0.4c0-0.2-0.1-0.3-0.2-0.4l-17.7-10.8
    l24.1-10.8c0.2-0.1,0.3-0.3,0.3-0.5l-3.6-40.3c28,18.2,55.2,36,70.5,46.1c-0.2,0.9-0.4,1.9-0.7,2.8l-0.1,0.5c-0.2,1-0.5,2-0.8,3
    l-0.2,0.6c-0.3,1-0.5,2-0.8,2.9L359.2,267.8z M183.6,385.9c-0.4,0-0.7-0.1-1.1-0.1c-1-0.1-1.9-0.2-2.8-0.3l-1.1-0.1
    c-1.3-0.2-2.5-0.3-3.8-0.5l-0.1,0c-1.3-0.2-2.6-0.4-3.9-0.7l-0.8-0.2c-1-0.2-2-0.4-3-0.6c-0.3-0.1-0.7-0.1-1-0.2l-0.2,0
    c-0.9-0.2-1.7-0.4-2.5-0.6l-1.4-0.3c-0.8-0.2-1.6-0.4-2.4-0.6c-0.4-0.1-0.9-0.2-1.3-0.3c-0.9-0.2-1.7-0.5-2.6-0.7l-0.3-0.1
    c-0.3-0.1-0.6-0.2-0.8-0.2c-1.1-0.3-2.2-0.6-3.2-1l-0.4-0.1c-1.2-0.4-2.5-0.8-3.7-1.2l-0.8-0.3c-0.9-0.3-1.9-0.6-2.8-1l-1.2-0.5
    c-0.8-0.3-1.6-0.6-2.4-0.9c-0.4-0.2-0.9-0.3-1.3-0.5c-0.8-0.3-1.5-0.6-2.3-0.9c-0.4-0.2-0.9-0.4-1.3-0.5c-0.8-0.3-1.6-0.7-2.3-1
    l-0.4-0.2c-0.3-0.1-0.5-0.2-0.8-0.3c-0.9-0.4-1.9-0.9-2.8-1.3l-0.6-0.3c-1.1-0.6-2.3-1.1-3.4-1.7l-0.8-0.4
    c-0.9-0.4-1.7-0.9-2.6-1.4c-0.3-0.2-0.6-0.3-0.9-0.5l-0.3-0.1c-0.7-0.4-1.4-0.8-2.2-1.2c-0.4-0.2-0.8-0.5-1.2-0.7
    c-0.7-0.4-1.4-0.8-2.1-1.2l-1.2-0.7c-0.7-0.4-1.4-0.9-2.1-1.3l-1.1-0.7c-0.8-0.5-1.6-1.1-2.4-1.6l-0.7-0.5c-1-0.7-2.1-1.4-3.1-2.1
    l-0.6-0.4c-0.8-0.6-1.6-1.2-2.4-1.8l-1-0.8c-0.6-0.5-1.3-1-1.9-1.5c-0.4-0.3-0.8-0.6-1.1-0.9c-0.6-0.5-1.2-1-1.9-1.5l-1.1-0.9
    c-0.6-0.5-1.2-1-1.8-1.5L91,346c-0.6-0.6-1.3-1.1-1.9-1.7l-0.9-0.8c-0.9-0.8-1.8-1.7-2.7-2.5l-0.5-0.5c-0.7-0.7-1.4-1.4-2.1-2.1
    c-0.2-0.2-0.4-0.4-0.6-0.6l-0.3-0.3c-0.6-0.6-1.1-1.1-1.6-1.7c-0.4-0.4-0.7-0.7-1.1-1.1c-0.5-0.5-1-1.1-1.5-1.6
    c-0.3-0.4-0.7-0.8-1-1.2c-0.5-0.6-1-1.1-1.5-1.7l-0.2-0.3c-0.2-0.3-0.5-0.6-0.7-0.9c-0.5-0.6-1.1-1.2-1.6-1.9l-0.2-0.3
    c-0.2-0.2-0.4-0.5-0.6-0.7c-0.8-1-1.6-1.9-2.3-2.9l-0.3-0.4c-0.7-0.8-1.3-1.7-1.9-2.5l-0.9-1.2c-0.5-0.6-0.9-1.2-1.3-1.8
    c-0.2-0.3-0.4-0.6-0.6-0.9L64,316c-0.4-0.6-0.8-1.2-1.2-1.8c-0.3-0.4-0.6-0.9-0.9-1.3c-0.4-0.6-0.8-1.2-1.2-1.9
    c-0.3-0.4-0.6-0.9-0.8-1.3c-0.4-0.6-0.8-1.3-1.2-1.9l-0.8-1.3c-0.5-0.8-1-1.6-1.5-2.5l-0.1-0.1c-0.2-0.3-0.4-0.7-0.6-1
    c-0.5-0.9-1-1.8-1.6-2.8c-0.2-0.3-0.3-0.6-0.5-0.9l-0.2-0.4c-0.4-0.7-0.7-1.3-1-2c-0.2-0.5-0.5-0.9-0.7-1.4l-0.1-0.1
    c-0.3-0.6-0.6-1.3-1-1.9c-0.2-0.5-0.5-1-0.7-1.5c-0.3-0.6-0.6-1.3-0.9-1.9c-0.2-0.5-0.5-1-0.7-1.6c-0.3-0.7-0.6-1.3-0.9-2l-0.2-0.4
    c-0.1-0.3-0.3-0.7-0.4-1c0-0.1-0.1-0.2-0.1-0.3l-4.8-13l-3.7-13.4c18.6-12.5,44.5-29.8,70.4-46.8l-3.6,40.3c0,0.2,0.1,0.4,0.3,0.5
    l24.1,10.8l-17.7,10.8c-0.1,0.1-0.2,0.2-0.2,0.4c0,0.2,0,0.3,0.1,0.4l87.9,87.5v6.6c-3.7,0.3-6.7,3.4-6.7,7.3c0,3.8,3,7,6.7,7.3
    v3.5c-1.2,0-2.4,0-3.6,0c-0.3,0-0.6,0-0.9,0l-0.2,0c-1,0-2-0.1-3-0.1l-1.3-0.1c-0.9,0-1.8-0.1-2.7-0.2c-0.5,0-0.9-0.1-1.4-0.1
    c-0.9-0.1-1.8-0.1-2.6-0.2L183.6,385.9z M269.2,263.5l18,10.9l-85.6,85.2l73.8-158.4l14.8,9.7l3.6,40.7l-24.6,11
    c-0.2,0.1-0.3,0.2-0.3,0.4S269.1,263.4,269.2,263.5z M130.7,262.6l-24.6-11l3.6-40.7l14.8-9.7l73.8,158.4l-85.6-85.2l18-10.9
    c0.2-0.1,0.3-0.3,0.2-0.5S130.9,262.7,130.7,262.6z M182.5,281.9l1.3,1.1l10.3,9.9l-12.2,23h-2.7l-9.7-20.9L182.5,281.9z
     M222,313.5l-2.4,5L206,292.9l10.3-9.8l1.3-1.1l13.1,13.1L222,313.5z M199.5,359.7L183,324.2h16.5L199.5,359.7z M182.5,323.2
    l-2.9-6.3h29.2v6.3H182.5z M246.7,260.4L231.1,294l-30.3-30.3l73.1-61.4L246.7,260.4z M216.8,281.2l-1.3,1.1l-10.8,10.3
    c-0.1,0.1-0.2,0.4-0.1,0.5s0.3,0.3,0.5,0.3l14,26.2l-18.6,39.9v-35.5h8.7c0.3,0,0.5-0.2,0.5-0.5v-7.3c0-0.3-0.2-0.5-0.5-0.5h-8.7
    v-50.9L216.8,281.2z M199.5,315.9h-16.6l11.9-22.4h0c0.2,0,0.4-0.1,0.5-0.3c0.1-0.2,0-0.4-0.1-0.5l-10.8-10.3l-1.2-1.1l16.3-16.3
    L199.5,315.9z M168.9,294l-42.7-91.7l73.1,61.4L168.9,294z M206.4,375.9c0,3.3-2.6,6-5.8,6.3v-12.5
    C203.8,369.9,206.4,372.6,206.4,375.9z M199.5,382.2c-3.2-0.3-5.7-3-5.7-6.3c0-3.3,2.5-6,5.7-6.3V382.2z M274.9,200.1
    C274.9,200.1,274.9,200.1,274.9,200.1l-74.9,63l-74.9-63c0,0,0,0,0,0L51,137.8h90.8l-8.8,16.9c0,0,0,0,0,0c0,0.1-0.1,0.2,0,0.3
    c0,0,0,0,0,0.1c0,0.1,0,0.2,0.1,0.2l37.6,43.4c0.1,0.1,0.2,0.2,0.4,0.2H229h0c0.1,0,0.3-0.1,0.4-0.2l37.6-43.4c0,0,0,0,0,0
    c0.1-0.1,0.1-0.1,0.1-0.2c0,0,0,0,0-0.1c0-0.1,0-0.2,0-0.2c0,0,0,0,0,0l-8.8-16.9H349L274.9,200.1z M245,115.3
    c-13.5,16-28.6,27.8-44.9,35c-16.3-7.2-31.4-19-44.9-35C187,104.5,213.2,104.5,245,115.3z M138,159.5
    c13.1,10.1,28.5,14.4,41.2,11.3c9.7-2.4,17-8.8,20.8-18.3c3.8,9.5,11.1,15.9,20.8,18.3c12.8,3.1,28.1-1.2,41.2-11.3l-33.3,38.4
    h-57.5L138,159.5z M266,154.8c-13.8,12.6-31,18.4-45,15c-9.6-2.4-16.9-9-20.4-18.6c16.4-7.2,31.5-19,45.1-35.1L266,154.8z
     M155.3,114.2l16.2-30.8c5.8-10.5,14.7-10.4,27.1-10.2l1.4,0l1.4,0c12.3-0.2,21.3-0.3,27.1,10.2l16.1,30.8
    C213,103.6,187,103.6,155.3,114.2z M199.4,151.1c-3.5,9.7-10.8,16.3-20.4,18.7c-14,3.4-31.2-2.3-45-15l20.4-38.9
    C167.9,132,183.1,143.8,199.4,151.1z M123.9,200.4c-30.6,19.8-63.5,41.8-85.9,56.8c-2.7-11.8-4.1-24-4.1-36.6
    c0-28.6,7.3-55.5,20.1-79.1L123.9,200.4z"/>
  <path class="st0" d="M199.9,135.4c0.1,0,0.1,0,0.2,0s0.1,0,0.2,0c10.5-4.2,20.3-11,29-20.4c0.1-0.1,0.2-0.3,0.1-0.5
    c0-0.2-0.2-0.3-0.3-0.3c-20.6-6.3-37.3-6.3-57.9,0c-0.2,0.1-0.3,0.2-0.3,0.3c0,0.2,0,0.3,0.1,0.5
    C179.6,124.4,189.4,131.3,199.9,135.4z M228,114.9c-8.4,8.9-17.8,15.4-27.9,19.5c-10.1-4-19.5-10.6-27.9-19.5
    C191.9,109,208.2,109,228,114.9z"/>
  <path class="st0" d="M252.2,335.4h57.2c0.3,0,0.5-0.2,0.5-0.5v-8c0,0,0,0,0-0.1c0,0,0,0,0-0.1c0-0.1-0.1-0.2-0.1-0.2l-15.4-15.4
    c-0.2-0.2-0.5-0.2-0.7,0l-4.9,4.9l-12.9-12.9c-0.2-0.2-0.5-0.2-0.7,0l-23.3,23.3c-0.1,0.1-0.1,0.1-0.1,0.2c0,0,0,0,0,0.1
    c0,0,0,0,0,0.1v8C251.7,335.2,252,335.4,252.2,335.4z M289.2,317.2l4.9-4.9l14.2,14.2h-54.8l22.1-22.1l12.9,12.9
    C288.7,317.4,289,317.4,289.2,317.2z M252.7,327.4H309v7h-56.2V327.4z"/>
  <path class="st0" d="M290.2,90.4c0.2-0.1,0.3-0.4,0.2-0.6c-2.2-6.9-6.2-12.4-11.7-15.9c-5.1-3.3-10.9-4.4-16.4-3.2
    c-10.2,2.2-20.2,12.9-17.4,36.3c0,0.2,0.2,0.4,0.5,0.4c0,0,0,0,0,0c0.2,0,0.4-0.1,0.5-0.4c2.2-7,7.8-11.7,13.8-11.4
    C274.8,96.3,282.8,94.9,290.2,90.4z M245.7,104.7c-1.9-21.2,7.3-31,16.8-33.1c1.4-0.3,2.9-0.5,4.2-0.5c10.8,0,19.4,8.9,22.6,18.6
    c-7.1,4.2-14.9,5.5-29.6,4.9C254,94.4,248.4,98.5,245.7,104.7z"/>
  <path class="st0" d="M137.7,70.7c-5.5-1.2-11.3,0-16.4,3.2c-5.5,3.5-9.5,9-11.7,15.9c-0.1,0.2,0,0.5,0.2,0.6
    c7.4,4.5,15.4,5.9,30.5,5.2c6-0.3,11.7,4.4,13.8,11.4c0.1,0.2,0.3,0.4,0.5,0.4c0,0,0,0,0,0c0.2,0,0.4-0.2,0.5-0.4
    C157.9,83.6,147.9,72.9,137.7,70.7z M154.3,104.7c-2.6-6.1-7.9-10.1-13.6-10.1c-0.2,0-0.3,0-0.5,0c-14.6,0.6-22.5-0.6-29.6-4.9
    c3.6-10.9,14.1-20.8,26.9-18.1C147,73.7,156.2,83.5,154.3,104.7z"/>
</svg>
